<svg width="1080" height="1080" viewBox="0 0 1080 1080" fill="none" xmlns="http://www.w3.org/2000/svg">
<g clip-path="url(#clip0_1_2)">
<rect width="1080" height="1080" fill="white"/>
<path d="M272.56 901.392L172 941.512L468.955 131L557.232 150.25L867 941.512L769.624 956L522.659 259.226L511.64 252.779L272.56 901.392Z" fill="black"/>
<path d="M754.711 913.381L834.601 939.59L663 426.5L520 234.853L677 604L754.711 913.381Z" fill="black"/>
<line x1="25.5" y1="4.37114e-08" x2="25.5" y2="50" stroke="black"/>
<line x1="50" y1="25.5" x2="-4.37114e-08" y2="25.5" stroke="black"/>
<line x1="25.5" y1="1030" x2="25.5" y2="1080" stroke="black"/>
<line x1="50" y1="1055.5" x2="-4.37114e-08" y2="1055.5" stroke="black"/>
<line x1="1055.5" y1="4.37114e-08" x2="1055.5" y2="50" stroke="black"/>
<line x1="1080" y1="25.5" x2="1030" y2="25.5" stroke="black"/>
<line x1="1055.5" y1="1030" x2="1055.5" y2="1080" stroke="black"/>
<line x1="1080" y1="1055.5" x2="1030" y2="1055.5" stroke="black"/>
</g>
<defs>
<clipPath id="clip0_1_2">
<rect width="1080" height="1080" fill="white"/>
</clipPath>
</defs>
</svg>
