<svg width="1080" height="1080" viewBox="0 0 1080 1080" fill="none" xmlns="http://www.w3.org/2000/svg">
<g clip-path="url(#clip0_5_48)">
<rect width="1080" height="1080" fill="white"/>
<line x1="25.5" y1="4.37114e-08" x2="25.5" y2="50" stroke="black"/>
<line x1="50" y1="25.5" x2="-4.37114e-08" y2="25.5" stroke="black"/>
<line x1="25.5" y1="1030" x2="25.5" y2="1080" stroke="black"/>
<line x1="50" y1="1055.5" x2="-4.37114e-08" y2="1055.5" stroke="black"/>
<line x1="1055.5" y1="4.37114e-08" x2="1055.5" y2="50" stroke="black"/>
<line x1="1080" y1="25.5" x2="1030" y2="25.5" stroke="black"/>
<line x1="1055.5" y1="1030" x2="1055.5" y2="1080" stroke="black"/>
<line x1="1080" y1="1055.5" x2="1030" y2="1055.5" stroke="black"/>
<path d="M764.069 461.077L764.085 461.052L764.101 461.026C783.055 430.394 792.555 397.142 792.555 361.379C792.555 323.572 783.097 289.259 764.126 258.583C745.844 227.873 719.544 203.807 685.417 186.371C656.716 171.645 618.549 164.5 571.319 164.5H261H255.5V170V910V915.5H261H588.323C620.39 915.5 646.347 913.367 666.034 908.99C685.615 904.636 703.466 898.087 719.549 889.311L719.591 889.288L719.632 889.264C751.613 871.085 777.094 846.326 796.004 815.043C815.662 782.988 825.5 747.974 825.5 710.115C825.5 667.043 811.967 628.282 785.001 594.013C760.722 563.158 731.318 540.543 696.83 526.273C724.703 509.512 747.145 487.777 764.069 461.077Z" stroke="black" stroke-width="11"/>
<circle cx="295.5" cy="201.5" r="21.5" fill="black"/>
<circle cx="295.5" cy="263.5" r="21.5" fill="black"/>
<circle cx="360.5" cy="201.5" r="21.5" fill="black"/>
<circle cx="360.5" cy="263.5" r="21.5" fill="black"/>
<circle cx="425.5" cy="201.5" r="21.5" fill="black"/>
<circle cx="425.5" cy="263.5" r="21.5" fill="black"/>
<circle cx="490.5" cy="201.5" r="21.5" fill="black"/>
<circle cx="490.5" cy="263.5" r="21.5" fill="black"/>
<circle cx="295.5" cy="325.5" r="21.5" fill="black"/>
<circle cx="295.5" cy="387.5" r="21.5" fill="black"/>
<circle cx="360.5" cy="325.5" r="21.5" fill="black"/>
<circle cx="360.5" cy="387.5" r="21.5" fill="black"/>
<circle cx="425.5" cy="325.5" r="21.5" fill="black"/>
<circle cx="425.5" cy="387.5" r="21.5" fill="black"/>
<circle cx="490.5" cy="325.5" r="21.5" fill="black"/>
<circle cx="490.5" cy="387.5" r="21.5" fill="black"/>
<circle cx="295.5" cy="449.5" r="21.5" fill="black"/>
<circle cx="295.5" cy="511.5" r="21.5" fill="black"/>
<circle cx="360.5" cy="449.5" r="21.5" fill="black"/>
<circle cx="360.5" cy="511.5" r="21.5" fill="black"/>
<circle cx="425.5" cy="449.5" r="21.5" fill="black"/>
<circle cx="425.5" cy="511.5" r="21.5" fill="black"/>
<circle cx="490.5" cy="449.5" r="21.5" fill="black"/>
<circle cx="490.5" cy="511.5" r="21.5" fill="black"/>
<circle cx="555.5" cy="201.5" r="21.5" fill="black"/>
<circle cx="555.5" cy="263.5" r="21.5" fill="black"/>
<circle cx="555.5" cy="325.5" r="21.5" fill="black"/>
<circle cx="555.5" cy="387.5" r="21.5" fill="black"/>
<circle cx="555.5" cy="449.5" r="21.5" fill="black"/>
<circle cx="620.5" cy="201.5" r="21.5" fill="black"/>
<circle cx="620.5" cy="263.5" r="21.5" fill="black"/>
<circle cx="620.5" cy="325.5" r="21.5" fill="black"/>
<circle cx="620.5" cy="387.5" r="21.5" fill="black"/>
<circle cx="620.5" cy="449.5" r="21.5" fill="black"/>
<circle cx="685.5" cy="263.5" r="21.5" fill="black"/>
<circle cx="685.5" cy="325.5" r="21.5" fill="black"/>
<circle cx="685.5" cy="387.5" r="21.5" fill="black"/>
<circle cx="685.5" cy="325.5" r="21.5" fill="black"/>
<circle cx="685.5" cy="387.5" r="21.5" fill="black"/>
<circle cx="685.5" cy="449.5" r="21.5" fill="black"/>
<circle cx="555.5" cy="511.5" r="21.5" fill="black"/>
<circle cx="620.5" cy="511.5" r="21.5" fill="black"/>
<circle cx="295.5" cy="573.5" r="21.5" fill="black"/>
<circle cx="295.5" cy="635.5" r="21.5" fill="black"/>
<circle cx="360.5" cy="573.5" r="21.5" fill="black"/>
<circle cx="360.5" cy="635.5" r="21.5" fill="black"/>
<circle cx="425.5" cy="573.5" r="21.5" fill="black"/>
<circle cx="425.5" cy="635.5" r="21.5" fill="black"/>
<circle cx="490.5" cy="573.5" r="21.5" fill="black"/>
<circle cx="490.5" cy="635.5" r="21.5" fill="black"/>
<circle cx="295.5" cy="821.5" r="21.5" fill="black"/>
<circle cx="295.5" cy="883.5" r="21.5" fill="black"/>
<circle cx="360.5" cy="821.5" r="21.5" fill="black"/>
<circle cx="360.5" cy="883.5" r="21.5" fill="black"/>
<circle cx="425.5" cy="821.5" r="21.5" fill="black"/>
<circle cx="425.5" cy="883.5" r="21.5" fill="black"/>
<circle cx="490.5" cy="821.5" r="21.5" fill="black"/>
<circle cx="490.5" cy="883.5" r="21.5" fill="black"/>
<circle cx="295.5" cy="697.5" r="21.5" fill="black"/>
<circle cx="295.5" cy="759.5" r="21.5" fill="black"/>
<circle cx="360.5" cy="697.5" r="21.5" fill="black"/>
<circle cx="360.5" cy="759.5" r="21.5" fill="black"/>
<circle cx="425.5" cy="697.5" r="21.5" fill="black"/>
<circle cx="425.5" cy="759.5" r="21.5" fill="black"/>
<circle cx="490.5" cy="697.5" r="21.5" fill="black"/>
<circle cx="490.5" cy="759.5" r="21.5" fill="black"/>
<circle cx="555.5" cy="573.5" r="21.5" fill="black"/>
<circle cx="555.5" cy="635.5" r="21.5" fill="black"/>
<circle cx="620.5" cy="573.5" r="21.5" fill="black"/>
<circle cx="620.5" cy="573.5" r="21.5" fill="black"/>
<circle cx="620.5" cy="573.5" r="21.5" fill="black"/>
<circle cx="620.5" cy="635.5" r="21.5" fill="black"/>
<circle cx="555.5" cy="821.5" r="21.5" fill="black"/>
<circle cx="555.5" cy="883.5" r="21.5" fill="black"/>
<circle cx="620.5" cy="821.5" r="21.5" fill="black"/>
<circle cx="620.5" cy="883.5" r="21.5" fill="black"/>
<circle cx="555.5" cy="697.5" r="21.5" fill="black"/>
<circle cx="555.5" cy="759.5" r="21.5" fill="black"/>
<circle cx="620.5" cy="697.5" r="21.5" fill="black"/>
<circle cx="620.5" cy="759.5" r="21.5" fill="black"/>
<circle cx="685.5" cy="635.5" r="21.5" fill="black"/>
<circle cx="685.5" cy="821.5" r="21.5" fill="black"/>
<circle cx="685.5" cy="697.5" r="21.5" fill="black"/>
<circle cx="685.5" cy="759.5" r="21.5" fill="black"/>
<circle cx="750.5" cy="697.5" r="21.5" fill="black"/>
<circle cx="750.5" cy="759.5" r="21.5" fill="black"/>
</g>
<defs>
<clipPath id="clip0_5_48">
<rect width="1080" height="1080" fill="white"/>
</clipPath>
</defs>
</svg>
