<?xml version="1.0" encoding="utf-8"?>
<!-- Generator: Adobe Illustrator 25.2.1, SVG Export Plug-In . SVG Version: 6.00 Build 0)  -->
<svg version="1.1" id="Layer_1" xmlns="http://www.w3.org/2000/svg" xmlns:xlink="http://www.w3.org/1999/xlink" x="0px" y="0px"
	 viewBox="0 0 1080 1080" style="enable-background:new 0 0 1080 1080;" xml:space="preserve">
<style type="text/css">
	.st0{clip-path:url(#SVGID_2_);}
	.st1{fill:#FFFFFF;}
	.st2{fill:none;stroke:#000000;}
	.st3{fill:#E2E2E2;}
	.st4{fill:none;stroke:#DDDDDD;stroke-width:3;stroke-miterlimit:10;}
	.st5{fill:#DDDDDD;}
	.st6{fill:none;stroke:#0019FF;stroke-miterlimit:10;}
</style>
<g>
	<defs>
		<rect id="SVGID_1_" y="0" width="1080" height="1080"/>
	</defs>
	<clipPath id="SVGID_2_">
		<use xlink:href="#SVGID_1_"  style="overflow:visible;"/>
	</clipPath>
	<g class="st0">
		<rect y="0" class="st1" width="1080" height="1080"/>
		<line class="st2" x1="25.5" y1="0" x2="25.5" y2="50"/>
		<line class="st2" x1="50" y1="25.5" x2="0" y2="25.5"/>
		<line class="st2" x1="25.5" y1="1030" x2="25.5" y2="1080"/>
		<line class="st2" x1="50" y1="1055.5" x2="0" y2="1055.5"/>
		<line class="st2" x1="1055.5" y1="0" x2="1055.5" y2="50"/>
		<line class="st2" x1="1080" y1="25.5" x2="1030" y2="25.5"/>
		<line class="st2" x1="1055.5" y1="1030" x2="1055.5" y2="1080"/>
		<line class="st2" x1="1080" y1="1055.5" x2="1030" y2="1055.5"/>
		<g>
			<path d="M822.4,134.1L838.3,371h-15.9c-21.2-70.9-51.6-122-91-153.2c-39.4-31.2-86.7-46.8-141.9-46.8
				c-46.3,0-88.1,11.7-125.4,35.2c-37.4,23.5-66.7,60.9-88.1,112.3c-21.4,51.4-32.1,115.3-32.1,191.7c0,63.1,10.1,117.7,30.3,164
				c20.2,46.3,50.6,81.7,91.2,106.4c40.6,24.7,86.9,37,139,37c45.2,0,85.1-9.7,119.8-29c34.6-19.4,72.6-57.8,114.1-115.4l15.9,10.3
				c-34.9,62-75.7,107.4-122.3,136.2c-46.6,28.8-101.9,43.2-166,43.2c-115.5,0-204.9-42.8-268.3-128.5
				c-47.3-63.7-70.9-138.8-70.9-225.1c0-69.6,15.6-133.5,46.8-191.7c31.2-58.2,74.1-103.4,128.8-135.4
				c54.6-32,114.4-48.1,179.1-48.1c50.4,0,100,12.3,149.1,37c14.4,7.5,24.7,11.3,30.8,11.3c9.3,0,17.3-3.3,24.2-9.8
				c8.9-9.3,15.2-22.1,19-38.5H822.4z"/>
		</g>
		<g>
			<ellipse class="st3" cx="794.7" cy="199.1" rx="21.3" ry="18.8"/>
			<path class="st4" d="M772.2,222.9c0,0,11.1,21.9,38.4,19.2"/>
			
				<ellipse transform="matrix(0.4138 -0.9104 0.9104 0.4138 284.0974 855.329)" class="st1" cx="806.2" cy="207.1" rx="3.9" ry="4.4"/>
			<ellipse cx="796.5" cy="189.8" rx="29" ry="12"/>
		</g>
		<g>
			<circle class="st5" cx="606.6" cy="491.9" r="203.1"/>
			<path class="st6" d="M827.1,368.9c0,0-24-232.9-279.1-208S234.1,508.5,290.1,631.2s222.3,305.9,412.5,188.5
				c56.6-35,123-90.7,134.2-133.9"/>
		</g>
	</g>
</g>
</svg>
